# xmcd
#
# Track frame offsets:
#	150
#	20358
#	35200
#	50391
#	64322
#	86695
#	101605
#	115938
#	132475
#	151373
#
# Disc length: 2388 seconds
#
# Revision: 1
# Processed by: cddbd v1.5.2PL0 Copyright (c) Steve Scherf et al.
# Submitted via: audiograbber 1.83.01
#
DISCID=8809520a
DTITLE=Sons of Sylvia - Revelation
DYEAR=2010
DGENRE=Country
TTITLE0=John Wayne
TTITLE1=Love Left To Lose
TTITLE2=Revelation
TTITLE3=50 Ways
TTITLE4=Song Of Solomon
TTITLE5=Give Me Love
TTITLE6=Ghost Town
TTITLE7=Long Beach
TTITLE8=I'll Know You
TTITLE9=The War Within
EXTD=
EXTT0=
EXTT1=
EXTT2=
EXTT3=
EXTT4=
EXTT5=
EXTT6=
EXTT7=
EXTT8=
EXTT9=
PLAYORDER=
